<svg id="Layer_1" data-name="Layer 1" xmlns="http://www.w3.org/2000/svg" xmlns:xlink="http://www.w3.org/1999/xlink" viewBox="0 0 725.98 54.7"><defs><style>.cls-1{stroke:#000;stroke-miterlimit:10;stroke-width:2.26px;fill:url(#linear-gradient);}.cls-2{fill:#f89c1c;}</style><linearGradient id="linear-gradient" x1="357.95" y1="16.5" x2="369.45" y2="44.88" gradientUnits="userSpaceOnUse"><stop offset="0" stop-color="#f27421"/><stop offset="1" stop-color="#fdd900"/></linearGradient></defs><title>hr</title><path class="cls-1" d="M377.64,1.39l-9.42,23.47a.41.41,0,0,0,.38.56h5.5a.35.35,0,0,1,.25.59l-27,27.49a.19.19,0,0,1-.31-.21l9.76-23.58a.41.41,0,0,0-.38-.56h-6.08a.35.35,0,0,1-.25-.6L377.33,1.19A.19.19,0,0,1,377.64,1.39Z"/><rect class="cls-2" y="22.6" width="335.49" height="11.92" rx="5.96" ry="5.96"/><rect class="cls-2" x="389.57" y="22.6" width="336.41" height="11.92" rx="5.96" ry="5.96"/></svg>