<svg id="Layer_1" data-name="Layer 1" xmlns="http://www.w3.org/2000/svg" xmlns:xlink="http://www.w3.org/1999/xlink" viewBox="0 0 95.41 157.47"><defs><style>.cls-1{fill:url(#linear-gradient);}</style><linearGradient id="linear-gradient" y1="78.73" x2="95.41" y2="78.73" gradientUnits="userSpaceOnUse"><stop offset="0" stop-color="#00bace"/><stop offset="1" stop-color="#5bbb68"/></linearGradient></defs><title>lightningbolt2</title><path class="cls-1" d="M4.67,157.47A4.67,4.67,0,0,1,.35,151L26.42,88H13.55a5.12,5.12,0,0,1-3.63-8.74L87.41,1.39a4.67,4.67,0,0,1,7.65,5h0L69.9,69.14H81.16a5.12,5.12,0,0,1,3.65,8.71L8,156.07A4.67,4.67,0,0,1,4.67,157.47Zm-2.55-7.19h0Zm19-70.53h9.76a5.29,5.29,0,0,1,4.89,7.31L15,137.13,73.68,77.4H65.51a5.29,5.29,0,0,1-4.91-7.26L80.83,19.71ZM91.23,4.89h0ZM87.4,3.35h0Z"/></svg>