<svg id="Layer_1" data-name="Layer 1" xmlns="http://www.w3.org/2000/svg" xmlns:xlink="http://www.w3.org/1999/xlink" viewBox="0 0 651.87 184.95"><defs><style>.cls-1,.cls-2{stroke:#000;stroke-miterlimit:10;stroke-width:6.41px;}.cls-1{fill:url(#linear-gradient);}.cls-2{fill:url(#linear-gradient-2);}.cls-3{font-size:95.15px;fill:#231f20;font-family:HarlowSolid, Harlow Solid Italic;font-style:italic;}.cls-4{letter-spacing:-0.01em;}.cls-5{letter-spacing:-0.03em;}</style><linearGradient id="linear-gradient" x1="2746.52" y1="2882.06" x2="2766.4" y2="2931.15" gradientTransform="translate(3012.96 -2716.79) rotate(90)" gradientUnits="userSpaceOnUse"><stop offset="0" stop-color="#f27421"/><stop offset="1" stop-color="#fdd900"/></linearGradient><linearGradient id="linear-gradient-2" x1="2772.81" y1="-2905.88" x2="2792.69" y2="-2856.79" gradientTransform="matrix(0, 1, 1, 0, 3434.79, -2716.79)" xlink:href="#linear-gradient"/></defs><title>logo</title><path class="cls-1" d="M157,63.78,116.43,47.5a.71.71,0,0,0-1,.66v9.51a.6.6,0,0,1-1,.43L66.9,11.42a.33.33,0,0,1,.36-.54L108,27.75a.71.71,0,0,0,1-.65V16.58a.6.6,0,0,1,1-.43l47.34,47.09A.33.33,0,0,1,157,63.78Z"/><path class="cls-2" d="M502.78,90.07l40.6-16.29a.71.71,0,0,1,1,.66V84a.6.6,0,0,0,1,.43l47.54-46.68a.33.33,0,0,0-.36-.54L551.77,54a.71.71,0,0,1-1-.65V42.86a.6.6,0,0,0-1-.43L502.43,89.53A.33.33,0,0,0,502.78,90.07Z"/><text class="cls-3" transform="translate(165.37 79.59)">Kilowatt</text><text class="cls-3" transform="translate(127.15 148.02)">Crack<tspan class="cls-4" x="215.25" y="0">d</tspan><tspan x="259.27" y="0">o</tspan><tspan class="cls-5" x="298.67" y="0">w</tspan><tspan x="349.94" y="0">n</tspan></text></svg>