<svg id="Layer_1" data-name="Layer 1" xmlns="http://www.w3.org/2000/svg" xmlns:xlink="http://www.w3.org/1999/xlink" viewBox="0 0 162.14 158.21"><defs><style>.cls-1{fill:url(#linear-gradient);}.cls-2{fill:url(#linear-gradient-2);}.cls-3{fill:url(#linear-gradient-3);}.cls-4{fill:url(#linear-gradient-4);}.cls-5{fill:url(#linear-gradient-5);}.cls-6{fill:url(#linear-gradient-6);}.cls-7{fill:url(#linear-gradient-7);}.cls-8{fill:url(#linear-gradient-8);}.cls-9{fill:url(#linear-gradient-9);}.cls-10{fill:url(#linear-gradient-10);}.cls-11{fill:url(#linear-gradient-11);}</style><linearGradient id="linear-gradient" x1="-49.6" y1="20.31" x2="168.21" y2="185.37" gradientUnits="userSpaceOnUse"><stop offset="0" stop-color="#00bace"/><stop offset="1" stop-color="#5bbb68"/></linearGradient><linearGradient id="linear-gradient-2" x1="-11.74" y1="-29.65" x2="206.07" y2="135.41" xlink:href="#linear-gradient"/><linearGradient id="linear-gradient-3" x1="14.64" y1="-64.46" x2="232.45" y2="100.59" xlink:href="#linear-gradient"/><linearGradient id="linear-gradient-4" x1="-20.15" y1="-18.55" x2="197.66" y2="146.51" xlink:href="#linear-gradient"/><linearGradient id="linear-gradient-5" x1="-19.91" y1="-18.87" x2="197.9" y2="146.19" xlink:href="#linear-gradient"/><linearGradient id="linear-gradient-6" x1="115.07" y1="100" x2="115.07" y2="100" xlink:href="#linear-gradient"/><linearGradient id="linear-gradient-7" x1="47.42" y1="100" x2="47.42" y2="100" xlink:href="#linear-gradient"/><linearGradient id="linear-gradient-8" x1="-58.39" y1="31.91" x2="159.42" y2="196.97" xlink:href="#linear-gradient"/><linearGradient id="linear-gradient-9" x1="94.61" y1="87.8" x2="94.61" y2="87.8" xlink:href="#linear-gradient"/><linearGradient id="linear-gradient-10" x1="99.57" y1="71.57" x2="99.57" y2="71.57" xlink:href="#linear-gradient"/><linearGradient id="linear-gradient-11" x1="62.74" y1="71.68" x2="62.74" y2="71.68" xlink:href="#linear-gradient"/></defs><title>people</title><path class="cls-1" d="M106.31,158.21H56.06a7.44,7.44,0,0,1-7.43-7.43v-50A32.74,32.74,0,0,1,81.17,68h0a32.56,32.56,0,0,1,32.56,32.56v50.23A7.44,7.44,0,0,1,106.31,158.21Zm-49.83-7.86h49.4v-49.8a24.7,24.7,0,0,0-24.7-24.7h0a24.87,24.87,0,0,0-24.69,25Z"/><path class="cls-2" d="M81.27,63.09a22.25,22.25,0,1,1,22.25-22.25A22.28,22.28,0,0,1,81.27,63.09Zm0-36.64A14.39,14.39,0,1,0,95.67,40.84,14.41,14.41,0,0,0,81.27,26.45Z"/><path class="cls-3" d="M129.67,45a22.25,22.25,0,1,1,22.25-22.25A22.28,22.28,0,0,1,129.67,45Zm0-36.64a14.39,14.39,0,1,0,14.39,14.39A14.41,14.41,0,0,0,129.67,8.32Z"/><path class="cls-4" d="M33.69,44.5A22.25,22.25,0,1,1,55.95,22.25,22.28,22.28,0,0,1,33.69,44.5Zm0-36.64A14.39,14.39,0,1,0,48.09,22.25,14.41,14.41,0,0,0,33.69,7.86Z"/><path class="cls-5" d="M154.71,140.08h-33.3a3.93,3.93,0,1,1,0-7.86h32.87V82.42a24.7,24.7,0,0,0-24.7-24.7h0a24.64,24.64,0,0,0-20.4,10.94,3.93,3.93,0,0,1-6.51-4.4,32.49,32.49,0,0,1,26.91-14.4h0a32.56,32.56,0,0,1,32.56,32.56v50.23A7.44,7.44,0,0,1,154.71,140.08Z"/><path class="cls-6" d="M115.07,100"/><path class="cls-7" d="M47.42,100"/><path class="cls-8" d="M41.07,139.62H7.43A7.44,7.44,0,0,1,0,132.19v-50A32.74,32.74,0,0,1,32.54,49.4h0A32.51,32.51,0,0,1,59.67,63.94a3.93,3.93,0,0,1-6.54,4.36,24.67,24.67,0,0,0-20.57-11h0a24.87,24.87,0,0,0-24.69,25v49.53H41.07a3.93,3.93,0,1,1,0,7.86Z"/><path class="cls-9" d="M94.61,87.8"/><path class="cls-10" d="M99.57,71.57"/><path class="cls-11" d="M62.74,71.68"/></svg>