<svg id="Layer_1" data-name="Layer 1" xmlns="http://www.w3.org/2000/svg" xmlns:xlink="http://www.w3.org/1999/xlink" viewBox="0 0 131.18 160.59"><defs><style>.cls-1{fill:url(#linear-gradient);}.cls-2{fill:url(#linear-gradient-2);}.cls-3{fill:url(#linear-gradient-3);}.cls-4{fill:url(#linear-gradient-4);}.cls-5{fill:url(#linear-gradient-5);}.cls-6{fill:url(#linear-gradient-6);}.cls-7{fill:url(#linear-gradient-7);}.cls-8{fill:url(#linear-gradient-8);}</style><linearGradient id="linear-gradient" x1="-21.23" y1="-18.01" x2="155.75" y2="182.37" gradientUnits="userSpaceOnUse"><stop offset="0" stop-color="#00bace"/><stop offset="1" stop-color="#5bbb68"/></linearGradient><linearGradient id="linear-gradient-2" x1="-2.04" y1="-34.96" x2="174.94" y2="165.42" xlink:href="#linear-gradient"/><linearGradient id="linear-gradient-3" x1="-28.93" y1="-8.65" x2="148.05" y2="191.73" xlink:href="#linear-gradient"/><linearGradient id="linear-gradient-4" x1="-28.96" y1="-8.63" x2="148.02" y2="191.75" xlink:href="#linear-gradient"/><linearGradient id="linear-gradient-5" x1="29.75" y1="-63.03" x2="206.73" y2="137.35" xlink:href="#linear-gradient"/><linearGradient id="linear-gradient-6" x1="17.14" y1="-51.9" x2="194.13" y2="148.48" xlink:href="#linear-gradient"/><linearGradient id="linear-gradient-7" x1="-3.93" y1="-33.29" x2="173.05" y2="167.09" xlink:href="#linear-gradient"/><linearGradient id="linear-gradient-8" x1="-16.54" y1="-22.15" x2="160.45" y2="178.22" xlink:href="#linear-gradient"/></defs><title>washing_machine</title><path class="cls-1" d="M113.79,160.59H17.39A17.41,17.41,0,0,1,0,143.2V17.39A17.41,17.41,0,0,1,17.39,0h96.4a17.41,17.41,0,0,1,17.39,17.39V143.2A17.41,17.41,0,0,1,113.79,160.59ZM17.39,9.17a8.23,8.23,0,0,0-8.22,8.22V143.2a8.23,8.23,0,0,0,8.22,8.22h96.4A8.23,8.23,0,0,0,122,143.2V17.39a8.23,8.23,0,0,0-8.22-8.22Z"/><path class="cls-2" d="M111.57,46.53H19.95a4.72,4.72,0,1,1,0-9.45h91.63a4.72,4.72,0,1,1,0,9.45Z"/><path class="cls-3" d="M65.4,138.26a40.11,40.11,0,1,1,40.11-40.11A40.16,40.16,0,0,1,65.4,138.26Zm0-70.78A30.67,30.67,0,1,0,96.07,98.15,30.7,30.7,0,0,0,65.4,67.49Z"/><path class="cls-4" d="M76.41,105.24a31.72,31.72,0,0,1-12.92-2.72c-8.79-3.89-18.51,0-18.6,0a4.72,4.72,0,1,1-3.67-8.7c.54-.23,13.47-5.56,26.1,0A23.77,23.77,0,0,0,85.66,94a4.72,4.72,0,0,1,4.18,8.47A32.66,32.66,0,0,1,76.41,105.24Z"/><path class="cls-5" d="M106.45,32.5a8.69,8.69,0,1,1,8.69-8.69A8.7,8.7,0,0,1,106.45,32.5Zm0-9.45a.76.76,0,1,0,.76.76A.76.76,0,0,0,106.45,23.06Z"/><path class="cls-6" d="M84,32.5a8.69,8.69,0,1,1,8.69-8.69A8.7,8.7,0,0,1,84,32.5Zm0-9.45a.76.76,0,1,0,.76.76A.76.76,0,0,0,84,23.06Z"/><path class="cls-7" d="M46.5,32.5a8.69,8.69,0,1,1,8.69-8.69A8.7,8.7,0,0,1,46.5,32.5Zm0-9.45a.76.76,0,1,0,.76.76A.76.76,0,0,0,46.5,23.06Z"/><path class="cls-8" d="M24.07,32.5a8.69,8.69,0,1,1,8.69-8.69A8.7,8.7,0,0,1,24.07,32.5Zm0-9.45a.76.76,0,1,0,.76.76A.76.76,0,0,0,24.07,23.06Z"/></svg>